<?xml version="1.0" standalone="no"?>
<!DOCTYPE svg PUBLIC "-//W3C//DTD SVG 20010904//EN"
 "http://www.w3.org/TR/2001/REC-SVG-20010904/DTD/svg10.dtd">
<svg version="1.0" xmlns="http://www.w3.org/2000/svg"
 width="1024.000000pt" height="1024.000000pt" viewBox="0 0 1024.000000 1024.000000"
 preserveAspectRatio="xMidYMid meet">
<metadata>
Created by potrace 1.16, written by Peter Selinger 2001-2019
</metadata>
<g transform="translate(0.000000,1024.000000) scale(0.100000,-0.100000)"
fill="#000000" stroke="none">
<path d="M0 5120 l0 -5120 5120 0 5120 0 0 5120 0 5120 -5120 0 -5120 0 0
-5120z m4491 3351 c50 -31 109 -111 109 -147 0 -17 -24 -39 -101 -94 -86 -61
-103 -69 -117 -58 -12 10 -14 10 -8 1 4 -8 2 -13 -5 -13 -14 0 -49 -38 -49
-54 0 -6 11 2 25 18 14 16 27 27 30 24 3 -2 -8 -17 -25 -33 -26 -25 -31 -26
-47 -14 -15 12 -16 12 -10 -3 7 -18 0 -22 -38 -19 -15 1 -17 0 -7 -7 11 -8 11
-10 -2 -15 -10 -4 -13 -13 -9 -23 5 -14 8 -15 17 -3 6 8 20 20 31 28 11 7 3
-3 -18 -23 -23 -23 -47 -37 -60 -36 -44 4 -55 0 -59 -25 -4 -20 -2 -23 8 -15
9 9 11 7 7 -9 -3 -13 -10 -18 -21 -14 -10 4 -13 2 -8 -5 4 -7 1 -12 -8 -12 -9
0 -16 -6 -17 -12 0 -10 -2 -10 -6 0 -2 6 -9 12 -14 12 -6 0 -9 -6 -8 -12 4
-37 -2 -57 -16 -52 -11 5 -13 2 -8 -12 4 -11 3 -15 -4 -11 -16 10 -22 -14 -10
-38 10 -19 9 -19 -8 -5 -17 14 -18 13 -12 -3 5 -13 2 -17 -11 -15 -18 3 -19
-3 -6 -36 5 -13 4 -17 -4 -12 -8 4 -10 2 -6 -7 3 -8 0 -18 -5 -22 -6 -3 -9
-11 -6 -16 4 -5 1 -9 -5 -9 -7 0 -10 -6 -7 -13 2 -7 -4 -23 -14 -36 -11 -13
-19 -18 -19 -12 0 7 -5 9 -11 6 -12 -8 -9 -54 6 -74 7 -11 7 -13 -1 -8 -6 3
-16 -4 -22 -18 -8 -18 -8 -26 0 -31 7 -5 8 -2 3 7 -4 8 1 5 12 -6 27 -27 21
-31 -17 -11 -22 11 -29 11 -21 2 6 -7 7 -17 3 -21 -4 -5 0 -6 9 -3 9 4 16 1
16 -8 0 -7 -5 -10 -10 -7 -6 4 -7 1 -1 -8 4 -8 10 -22 11 -33 3 -15 0 -16 -10
-8 -10 9 -14 8 -14 -3 0 -8 6 -15 14 -15 7 0 13 -5 13 -11 0 -5 -4 -8 -9 -4
-5 3 -12 1 -16 -5 -3 -5 -1 -10 5 -10 6 0 8 -4 5 -10 -3 -5 -3 -10 2 -10 4 0
9 -17 9 -38 1 -20 0 -29 -3 -19 -2 9 -9 17 -14 17 -6 0 -7 -5 -3 -12 5 -7 2
-9 -7 -6 -9 4 -14 -2 -15 -19 -2 -21 0 -22 10 -8 10 14 12 10 11 -22 0 -22 6
-43 15 -51 13 -10 12 -11 -4 -6 -16 6 -17 5 -7 -15 7 -12 9 -26 6 -31 -3 -6 0
-10 7 -10 7 0 19 -9 26 -20 7 -12 18 -18 25 -13 7 4 7 1 -2 -10 -7 -9 -10 -17
-5 -17 22 1 31 18 29 49 -2 25 0 30 6 19 18 -32 -4 -88 -35 -89 -20 0 -20 -1
-1 -9 18 -8 18 -9 2 -9 -10 -1 -15 -6 -12 -11 4 -6 10 -8 15 -5 4 3 11 -2 14
-11 3 -8 10 -12 16 -9 6 4 7 -1 3 -11 -5 -14 -2 -16 14 -12 15 4 20 1 18 -11
-1 -9 6 -22 17 -29 10 -7 16 -17 13 -22 -7 -11 26 -51 37 -44 4 3 5 -2 2 -11
-4 -10 -2 -14 8 -10 18 7 44 -20 28 -30 -6 -3 -8 -11 -4 -16 3 -6 12 -3 21 8
13 17 14 17 9 1 -3 -11 0 -18 7 -18 8 0 7 -4 -3 -9 -8 -6 -19 -7 -25 -4 -5 3
3 -8 19 -25 17 -18 26 -32 22 -32 -5 0 -2 -8 5 -17 12 -15 12 -16 -3 -10 -13
4 -18 1 -18 -9 0 -10 6 -14 15 -10 14 5 42 -30 32 -41 -3 -2 -8 5 -12 16 -3
12 -11 19 -16 15 -6 -4 -6 -11 2 -20 6 -8 8 -14 3 -14 -5 0 2 -7 15 -16 22
-16 22 -18 6 -27 -17 -9 -16 -11 6 -23 16 -9 19 -13 8 -14 -17 0 -59 40 -43
41 5 0 -1 4 -14 10 -13 5 -21 13 -17 19 3 5 0 7 -8 4 -8 -3 -18 0 -23 7 -5 8
-3 10 7 4 8 -5 10 -4 6 0 -4 5 -14 10 -22 11 -7 1 -35 17 -61 35 -75 51 -203
97 -312 110 -85 11 -107 10 -176 -5 -65 -15 -80 -16 -91 -4 -89 98 -108 120
-95 114 9 -5 8 -2 -2 7 -10 8 -15 16 -12 19 2 3 -3 8 -12 12 -12 4 -15 2 -11
-9 5 -12 1 -12 -28 2 -19 9 -32 20 -29 25 3 4 3 8 0 8 -2 0 -13 3 -23 6 -15 5
-15 4 -3 -5 10 -7 11 -11 3 -11 -7 0 -21 9 -31 21 -16 17 -27 19 -57 13 -22
-4 -36 -3 -32 2 3 5 -48 6 -121 3 -211 -11 -411 -85 -536 -198 l-30 -26 18 30
c157 256 342 406 620 500 152 51 201 75 274 130 80 61 148 145 256 319 124
198 213 314 351 452 151 152 322 278 432 319 50 18 43 19 94 -14z m1516 -1476
c50 -21 72 -42 94 -90 18 -38 18 -101 17 -1445 -1 -773 -5 -1358 -8 -1300 -4
74 -7 90 -10 55 -2 -27 -2 -69 -1 -92 2 -28 -2 -43 -9 -43 -8 0 -9 -10 -5 -28
4 -19 1 -33 -7 -40 -17 -13 -15 -45 -17 327 -2 261 -6 338 -15 279 -1 -7 -6
-19 -10 -27 -7 -10 -5 -12 5 -6 11 6 12 5 2 -6 -15 -16 -17 -33 -3 -24 12 7
12 -2 0 -30 -8 -18 -9 -18 -9 -2 -1 10 -4 16 -8 14 -5 -3 -8 10 -8 29 0 19 3
34 8 34 4 0 7 5 7 11 0 6 -6 9 -12 6 -7 -2 -14 -19 -15 -38 -5 -65 -6 -70 -20
-65 -19 8 -16 -4 5 -20 16 -13 16 -14 -2 -7 -15 5 -17 3 -11 -8 7 -11 6 -12
-7 -2 -8 7 -18 10 -21 6 -4 -3 -7 1 -7 11 0 9 -4 14 -10 11 -5 -3 -10 -2 -10
3 0 5 -7 9 -15 9 -18 0 -20 -13 -2 -21 6 -3 -1 -3 -18 1 -16 3 -34 6 -40 7 -5
0 -13 12 -16 26 -4 16 -7 5 -8 -32 -1 -61 4 -72 18 -36 l8 22 6 -23 c4 -18 1
-24 -14 -28 -18 -5 -19 -16 -20 -202 -2 -353 -4 -401 -14 -398 -12 4 -12 6
-16 167 -3 118 -4 114 -9 -70 -3 -107 -6 518 -5 1390 l0 1585 23 33 c47 65
133 88 209 57z m-2904 -230 c98 -20 178 -67 247 -143 58 -64 58 -64 101 -58
129 18 259 18 331 1 179 -43 321 -153 398 -311 29 -59 57 -160 47 -170 -2 -3
-10 23 -16 57 -7 33 -15 59 -17 56 -3 -3 -1 -28 4 -55 6 -36 6 -50 -2 -49 -6
1 -10 -4 -9 -10 2 -7 -2 -13 -7 -13 -6 0 -10 8 -10 17 0 13 -3 14 -12 5 -10
-10 -10 -17 0 -32 8 -13 9 -20 1 -20 -5 0 -7 -4 -4 -10 3 -5 2 -10 -3 -10 -5
0 -14 24 -21 53 -6 28 -18 63 -26 77 l-15 25 4 -27 c3 -15 8 -33 12 -40 5 -8
0 -7 -11 2 -17 13 -18 13 -13 -1 5 -13 2 -16 -12 -12 -10 3 -21 -1 -26 -8 -5
-9 -2 -11 9 -6 9 3 19 1 23 -5 4 -7 3 -8 -4 -4 -7 4 -12 2 -12 -4 0 -7 -6 -10
-14 -7 -8 3 -20 -1 -26 -9 -7 -8 -21 -14 -31 -14 -11 0 -19 -7 -19 -17 0 -15
-2 -16 -10 -3 -8 12 -10 12 -10 -5 0 -17 -2 -17 -10 -5 -8 13 -10 12 -10 -2 0
-10 -7 -18 -15 -18 -9 0 -18 -7 -21 -15 -4 -8 -10 -12 -15 -9 -5 3 -9 -4 -9
-15 0 -14 -6 -21 -20 -21 -11 0 -20 -6 -20 -13 0 -8 -6 -27 -14 -43 -8 -16
-20 -42 -26 -58 -8 -21 -13 -26 -23 -18 -9 8 -17 8 -27 0 -12 -8 -11 -9 5 -4
19 6 19 6 -1 -12 -11 -9 -19 -23 -16 -30 2 -8 -3 -10 -15 -6 -16 6 -16 5 2
-10 20 -17 20 -17 -3 -13 -12 3 -20 1 -16 -4 3 -5 1 -9 -5 -9 -6 0 -7 -8 -4
-17 6 -16 5 -17 -12 -3 -11 9 -16 10 -11 3 4 -7 3 -13 -2 -13 -5 0 -9 -7 -9
-15 0 -10 4 -12 12 -5 17 14 12 -27 -5 -43 -10 -10 -11 -9 -5 3 5 8 5 12 1 8
-4 -3 -7 -9 -7 -12 1 -4 -6 -20 -15 -37 -8 -17 -11 -28 -6 -25 6 4 14 1 18 -5
4 -8 3 -9 -4 -5 -7 4 -12 0 -13 -11 0 -11 -3 -13 -6 -5 -2 6 -9 9 -14 6 -6 -3
-2 -12 8 -19 10 -7 18 -24 18 -37 1 -13 6 -22 13 -21 7 2 12 -2 12 -7 0 -6 -7
-10 -15 -10 -14 0 -19 12 -16 33 2 12 -17 8 -21 -5 -3 -7 5 -21 17 -33 25 -23
23 -46 -3 -39 -9 2 -7 -1 6 -7 22 -12 31 -39 11 -39 -5 0 -7 5 -3 12 5 7 3 8
-6 3 -10 -6 -9 -11 5 -21 10 -7 22 -11 26 -8 11 7 11 -7 0 -25 -5 -8 -14 -10
-21 -6 -9 6 -11 4 -5 -4 4 -7 18 -11 31 -8 13 2 24 0 24 -4 0 -9 -15 -13 -37
-10 -7 1 -13 -5 -13 -13 0 -12 6 -13 32 -5 17 5 34 6 37 4 2 -3 -2 -5 -9 -5
-10 0 -8 -4 4 -13 16 -12 16 -13 -3 -14 -12 -1 -21 2 -21 8 0 5 -4 9 -8 9 -5
0 -8 -10 -6 -22 1 -13 3 -27 3 -31 1 -5 5 -6 10 -3 5 3 12 -1 15 -10 9 -24 7
-34 -7 -34 -8 0 -13 -9 -12 -22 1 -13 -3 -29 -9 -37 -8 -11 -8 -13 2 -7 8 5
12 -1 12 -19 0 -17 4 -24 12 -19 7 4 8 3 4 -4 -12 -20 -16 -82 -5 -82 5 0 7
-4 4 -10 -11 -18 -14 -50 -4 -55 10 -7 11 -5 15 43 5 69 58 269 91 348 37 88
56 114 69 93 4 -7 3 -9 -4 -5 -6 3 -13 2 -17 -4 -6 -9 7 -14 28 -11 4 0 7 -3
7 -8 0 -14 -28 -21 -34 -8 -2 7 -3 -8 -1 -33 2 -25 -1 -51 -8 -59 -10 -12 -9
-13 2 -6 11 6 13 4 8 -9 -4 -11 -3 -15 4 -11 6 4 8 13 5 21 -3 8 1 14 10 14 8
0 12 -5 8 -11 -4 -8 0 -8 15 0 19 10 21 9 21 -11 0 -19 -2 -20 -10 -8 -8 12
-10 11 -10 -7 0 -12 -7 -29 -16 -37 -8 -9 -11 -16 -5 -16 7 0 7 -8 1 -24 -5
-13 -6 -27 -2 -31 4 -3 12 13 19 37 10 39 11 37 5 -32 -4 -41 -7 -114 -7 -162
0 -49 -3 -88 -7 -88 -5 0 -8 -5 -8 -11 0 -5 4 -8 9 -5 4 3 11 -21 14 -54 4
-32 14 -93 22 -135 9 -41 13 -81 9 -88 -4 -6 -4 -9 1 -5 4 4 24 -41 44 -100
21 -59 45 -122 55 -140 10 -19 15 -40 12 -48 -3 -8 -2 -13 2 -10 5 3 19 -16
33 -42 140 -268 344 -505 639 -744 486 -393 1070 -645 1566 -676 132 -9 273
-7 332 3 55 10 31 -8 -100 -72 -146 -73 -231 -103 -301 -109 -95 -7 -107 -10
-123 -30 -8 -10 -13 -13 -9 -6 4 8 -4 14 -24 18 -17 4 -28 10 -25 15 3 5 -5 9
-18 9 -13 0 -18 -4 -13 -8 25 -18 14 -32 -25 -32 -38 0 -54 13 -27 23 9 4 9 6
-1 6 -7 1 -17 -9 -22 -21 -5 -13 -9 -17 -9 -10 -1 7 -6 10 -12 7 -5 -4 -20 1
-31 12 -20 16 -21 17 -15 1 4 -10 2 -18 -4 -18 -6 0 -7 -4 -4 -10 3 -5 -14 2
-38 18 -37 22 -43 30 -33 42 9 13 9 13 -5 3 -9 -7 -20 -9 -24 -5 -5 4 -5 1 -1
-5 9 -17 -6 -17 -23 0 -11 10 -11 8 -2 -10 9 -18 8 -21 -7 -18 -9 1 -16 9 -16
17 1 13 -2 14 -25 2 -14 -8 -31 -14 -37 -14 -17 0 -24 26 -11 40 10 10 8 10
-9 2 -15 -8 -24 -8 -33 1 -10 9 -11 8 -5 -8 7 -20 7 -20 -14 -1 -18 16 -26 17
-47 8 -15 -7 -26 -8 -30 -1 -4 5 -11 6 -17 3 -6 -4 -8 -2 -5 3 4 6 0 13 -8 17
-8 3 -17 0 -21 -6 -5 -7 -12 -5 -21 7 -9 14 -13 15 -13 4 0 -12 -2 -12 -9 0
-5 8 -17 16 -25 17 -9 1 -14 -2 -10 -7 3 -5 0 -9 -5 -9 -6 0 -11 4 -11 8 0 5
-15 9 -32 9 -61 1 -68 3 -68 18 0 8 5 15 11 15 5 0 7 -5 3 -12 -4 -7 -3 -8 5
-4 6 4 9 11 6 16 -8 14 -57 22 -68 11 -7 -7 -14 -4 -21 11 -6 12 -22 23 -36
25 -13 2 -27 9 -31 15 -10 16 -39 19 -33 3 3 -7 0 -16 -6 -20 -6 -3 -10 -3 -9
2 3 20 -2 34 -11 28 -5 -3 -10 -4 -10 0 0 3 10 10 23 16 22 9 21 9 -3 5 -14
-3 -31 1 -42 11 -10 9 -18 11 -18 6 0 -6 -11 -13 -24 -15 -17 -3 -23 0 -22 11
1 12 -6 15 -26 13 -14 -2 -29 2 -34 9 -4 7 -3 10 3 6 5 -3 10 0 10 7 0 8 -6
12 -14 9 -7 -3 -13 0 -13 7 0 6 -5 8 -12 4 -7 -5 -9 -2 -6 8 5 12 0 14 -33 8
-35 -7 -38 -6 -27 8 11 13 11 14 0 8 -20 -12 -72 13 -65 30 3 8 2 14 -3 13 -5
-1 -22 3 -37 9 -16 7 -33 12 -38 12 -6 0 -7 5 -3 12 5 7 2 9 -9 5 -9 -3 -18
-1 -21 6 -2 7 -5 3 -6 -8 -1 -18 -2 -17 -14 5 -8 14 -12 29 -8 34 3 5 -2 6
-13 2 -16 -6 -16 -4 -4 11 13 15 12 16 -6 9 -34 -14 -50 -12 -49 6 1 10 -2 15
-7 12 -5 -3 -12 2 -15 11 -5 13 -9 14 -15 4 -5 -9 -11 -5 -20 14 -9 20 -15 24
-21 15 -6 -10 -8 -8 -8 5 0 9 -5 17 -11 17 -5 0 -7 -6 -3 -12 3 -7 -4 -2 -17
12 -13 14 -20 20 -15 13 5 -8 6 -16 2 -20 -3 -3 -6 -1 -6 7 0 10 -4 10 -17 -1
-15 -12 -16 -12 -8 1 6 8 10 17 10 20 0 3 5 13 11 24 8 12 14 15 18 7 4 -6 12
-11 19 -11 7 0 8 3 1 10 -14 14 -56 22 -49 9 4 -5 1 -9 -5 -9 -6 0 -13 6 -16
14 -4 11 -12 13 -30 6 -20 -8 -24 -7 -24 11 0 11 -4 18 -9 14 -5 -3 -12 -1
-16 5 -4 6 -11 8 -16 5 -5 -4 -9 -2 -9 4 0 5 16 9 35 8 23 -1 34 -6 31 -14 -3
-7 1 -10 10 -6 8 3 21 0 29 -7 8 -7 15 -10 15 -7 0 2 -16 17 -36 32 -30 23
-38 25 -46 14 -8 -11 -9 -10 -4 3 3 12 -7 27 -34 48 -38 30 -38 30 -27 5 7
-14 17 -23 24 -21 12 5 28 -23 18 -32 -3 -3 -5 0 -5 6 0 6 -7 9 -16 5 -10 -4
-17 1 -21 16 -3 11 -9 18 -14 15 -5 -3 -9 1 -9 9 0 8 -7 20 -15 27 -8 7 -13
16 -10 20 3 5 1 12 -5 15 -6 4 -9 1 -8 -5 2 -7 -5 -14 -15 -15 -11 -2 -16 -1
-13 2 9 9 -15 34 -25 27 -5 -3 -9 5 -9 17 0 19 2 20 18 8 14 -11 13 -10 -2 9
-23 26 -29 27 -52 5 -16 -16 -16 -16 -9 6 5 16 4 21 -4 17 -6 -4 -11 -3 -11 3
0 5 -9 9 -20 8 -11 -1 -20 -5 -20 -10 0 -4 -4 -5 -10 -2 -18 11 -11 24 11 20
13 -3 19 0 16 8 -2 7 -13 11 -23 10 -10 -1 -13 0 -6 3 16 7 -3 34 -25 34 -8 0
-11 5 -8 10 3 5 2 10 -3 10 -5 0 -12 9 -15 20 -7 26 1 25 32 -2 14 -13 10 -6
-9 15 -34 37 -35 38 -40 15 -3 -15 -13 -24 -29 -26 -15 -2 -21 0 -17 7 4 6 15
11 24 12 12 0 11 3 -5 9 -13 5 -23 16 -23 23 0 8 -7 14 -15 14 -11 0 -12 -4
-4 -13 7 -8 7 -14 -1 -19 -5 -3 -10 -2 -10 2 0 5 -10 9 -21 10 -12 1 -23 4
-26 7 -9 9 -10 56 0 56 5 0 4 7 -3 15 -11 13 -10 15 6 9 17 -5 17 -4 -1 7 -35
22 -44 36 -43 68 1 17 4 31 7 31 3 0 23 -19 45 -42 43 -47 37 -36 -14 30 -18
23 -38 42 -44 41 -6 0 -5 -3 2 -6 6 -2 9 -9 6 -14 -3 -6 -11 -5 -20 2 -10 8
-14 8 -14 0 0 -6 4 -11 8 -11 4 0 8 -11 8 -25 0 -20 -2 -23 -12 -13 -17 18
-25 76 -11 82 7 3 0 3 -14 0 -18 -4 -28 -1 -32 9 -4 12 0 15 21 12 15 -2 21
-2 14 1 -6 3 -9 10 -6 16 4 6 17 -2 30 -18 14 -16 -7 21 -46 81 -39 61 -76
109 -81 107 -6 -1 -8 2 -4 8 3 5 -20 60 -52 122 -32 62 -68 136 -80 163 -12
28 -20 41 -19 30 1 -11 4 -24 7 -30 3 -5 9 -19 13 -30 7 -19 6 -19 -10 -3 -16
16 -18 16 -31 0 -11 -12 -16 -14 -19 -4 -3 6 -10 9 -16 6 -6 -4 -5 2 1 15 13
24 26 29 18 6 -4 -8 -1 -17 6 -21 7 -4 9 -4 5 1 -4 4 -3 14 4 22 16 20 -5 41
-26 24 -12 -10 -16 -8 -22 11 -4 13 -7 29 -6 36 2 6 -2 12 -8 12 -5 0 -10 -7
-10 -16 0 -8 -5 -12 -10 -9 -6 3 -13 -1 -16 -9 -7 -18 -34 -22 -34 -5 0 5 4 8
9 5 5 -3 14 1 21 9 7 8 9 15 4 15 -4 0 1 7 12 15 16 13 16 14 2 9 -22 -8 -24
12 -2 20 8 3 12 11 9 16 -8 12 -42 4 -65 -15 -20 -16 -50 -15 -50 2 0 16 -5
16 -31 3 -15 -9 -19 -7 -19 6 0 10 5 14 15 10 8 -3 15 -1 15 4 0 5 8 6 17 3
14 -5 13 -2 -4 16 -21 23 -21 57 0 44 5 -3 7 -1 3 5 -3 5 0 13 6 15 9 4 10 6
1 6 -6 1 -15 -3 -18 -9 -3 -5 -14 -10 -23 -10 -12 0 -13 3 -4 12 7 7 12 19 11
27 0 13 -2 14 -6 1 -9 -23 -42 -54 -50 -47 -3 4 -1 7 5 7 6 0 9 6 6 14 -3 7 2
20 10 29 14 13 14 16 0 21 -8 3 -13 10 -10 15 3 5 -1 12 -10 15 -8 3 -12 2 -9
-4 3 -6 2 -10 -3 -10 -17 0 -21 12 -11 37 6 16 6 22 -1 18 -6 -3 -10 -13 -10
-22 0 -9 -6 -13 -14 -10 -10 4 -12 0 -9 -14 3 -12 11 -18 19 -15 8 3 14 1 14
-4 0 -5 6 -7 14 -4 8 3 17 0 21 -6 5 -9 -3 -11 -28 -7 -22 3 -38 0 -41 -7 -2
-6 -5 -1 -5 12 -1 14 -5 21 -12 16 -6 -3 -15 0 -20 7 -7 11 -9 10 -9 -3 0 -10
-3 -18 -7 -19 -5 0 -18 -2 -30 -3 -13 -2 -23 3 -23 10 0 8 9 11 25 8 17 -3 24
0 23 8 -2 8 6 13 19 12 13 0 21 2 18 4 -3 3 1 12 8 21 11 14 10 14 -6 2 -15
-12 -20 -12 -26 -2 -6 9 -10 7 -13 -7 -4 -13 -16 -22 -34 -24 -21 -2 -29 -8
-28 -21 1 -10 0 -16 -3 -13 -3 3 -14 1 -24 -5 -15 -7 -17 -6 -13 6 3 8 10 12
15 9 12 -7 11 7 -1 26 -8 13 -10 12 -10 -3 0 -11 -4 -15 -12 -11 -7 4 -8 3 -4
-4 4 -7 2 -12 -3 -12 -6 0 -11 7 -11 16 0 11 -6 15 -20 11 -10 -3 -21 0 -24 7
-2 6 -5 1 -5 -12 -1 -13 3 -20 9 -17 6 4 7 -1 3 -11 -5 -13 -3 -15 7 -9 8 5
11 4 6 -3 -4 -6 -13 -9 -21 -6 -8 4 -12 10 -9 15 3 5 -4 9 -15 9 -13 0 -21 6
-21 18 0 13 2 14 9 3 5 -8 11 -9 15 -3 3 5 -1 13 -9 16 -10 3 -18 -1 -22 -12
-3 -9 -13 -26 -22 -37 -15 -18 -15 -19 0 -7 22 16 29 6 19 -28 -4 -16 -5 -31
-2 -35 4 -3 -2 -3 -12 1 -16 6 -18 4 -14 -14 3 -12 0 -29 -7 -39 -11 -15 -15
-15 -29 -4 -14 12 -16 12 -10 -3 3 -9 13 -16 21 -16 8 0 12 -4 8 -10 -3 -5
-12 -7 -20 -3 -8 3 -15 0 -15 -7 0 -8 9 -11 25 -8 14 3 28 1 31 -3 3 -5 11 -9
17 -9 7 0 4 5 -5 11 -19 11 -25 39 -8 39 5 0 7 7 4 15 -4 10 0 15 12 16 18 0
18 1 -1 10 -19 9 -18 9 3 5 12 -2 22 -3 22 -1 0 2 3 11 7 21 5 13 3 15 -8 9
-12 -7 -12 -6 -1 7 8 10 9 18 3 22 -6 4 -7 14 -4 22 4 11 8 12 13 4 4 -6 20
-12 35 -14 16 -2 31 -9 33 -16 3 -7 0 -10 -6 -6 -5 3 -12 -1 -16 -9 -3 -8 -11
-15 -18 -15 -10 0 -10 2 0 9 11 6 10 10 0 19 -11 8 -14 6 -16 -11 -5 -52 -3
-70 10 -78 11 -7 11 -9 0 -9 -8 0 -16 9 -19 20 l-6 21 -14 -21 c-8 -11 -11
-25 -7 -32 4 -6 3 -8 -4 -4 -6 3 -13 2 -16 -3 -3 -5 1 -12 10 -15 13 -5 14 -9
4 -21 -10 -11 -16 -12 -26 -4 -7 6 -19 9 -26 6 -19 -6 -50 12 -42 25 5 7 2 8
-6 3 -10 -6 -6 -14 16 -32 16 -12 23 -23 16 -23 -7 0 -10 -5 -7 -11 5 -6 13
-2 23 12 15 21 16 21 22 4 8 -24 0 -66 -11 -59 -5 3 -6 10 -3 16 4 7 2 8 -4 4
-9 -5 -7 -15 5 -34 32 -50 50 -71 57 -64 4 3 4 -1 1 -10 -4 -9 -2 -23 4 -30 7
-7 29 -38 51 -68 46 -64 141 -182 170 -210 3 -3 17 -21 31 -40 15 -20 60 -69
100 -110 41 -40 68 -70 62 -66 -9 5 -13 0 -13 -15 0 -12 -3 -19 -7 -15 -8 7
-9 11 -12 37 -1 8 -7 7 -18 -2 -9 -8 -24 -13 -34 -11 -23 4 -28 -7 -18 -38 9
-25 9 -25 5 3 -2 15 -2 27 0 27 2 0 10 -12 18 -27 14 -26 21 -20 17 14 -1 6 3
14 8 17 12 8 21 -21 16 -57 -2 -15 1 -25 6 -21 5 3 6 10 3 16 -4 7 0 7 13 0
16 -9 18 -7 17 16 0 15 4 30 10 34 11 8 36 -9 36 -24 0 -7 -5 -6 -13 1 -8 6
-17 8 -20 4 -13 -12 -7 -19 20 -21 14 -1 29 -5 32 -8 3 -4 -6 -4 -21 -2 -19 4
-28 1 -28 -8 0 -8 9 -11 24 -8 19 3 24 0 21 -13 -2 -10 -4 -20 -4 -22 -1 -3
-8 4 -16 15 -8 10 -15 15 -15 11 0 -4 -8 -3 -18 2 -13 7 -23 6 -30 -1 -19 -19
-14 -30 9 -23 23 8 50 -20 42 -42 -3 -7 0 -13 7 -13 7 0 9 -8 5 -20 -4 -12 -2
-20 6 -20 16 0 59 -47 50 -56 -3 -4 1 -5 10 -1 13 4 16 1 12 -14 -6 -22 15
-26 36 -6 11 10 13 9 8 -5 -4 -10 -3 -17 1 -17 19 3 25 -2 12 -11 -12 -7 -10
-14 15 -40 18 -19 37 -29 47 -26 10 2 16 0 13 -4 -3 -5 -1 -11 5 -15 5 -3 10
2 10 11 0 28 9 10 13 -25 3 -22 12 -37 28 -45 13 -7 23 -19 21 -28 -1 -9 2
-19 8 -23 5 -3 10 -11 10 -16 0 -6 -4 -7 -10 -4 -5 3 -10 1 -10 -5 0 -6 -5 -8
-11 -4 -8 4 -7 9 2 14 10 7 9 11 -3 24 -18 17 -29 11 -21 -12 8 -18 -52 21
-189 126 -55 41 -95 79 -91 85 3 5 1 7 -4 4 -24 -15 -316 252 -465 424 -201
232 -328 423 -448 671 -114 237 -180 470 -211 737 -15 135 -7 476 15 591 83
441 320 781 613 879 123 41 243 50 356 26z m3606 -375 c48 -24 78 -60 92 -114
9 -30 10 -226 5 -721 -3 -374 -6 -843 -6 -1043 0 -351 -1 -362 -19 -353 -10 6
-20 8 -23 6 -2 -3 -5 17 -6 43 -2 26 -4 58 -6 72 -2 14 -4 89 -5 168 0 86 -5
141 -10 137 -5 -3 -13 -1 -16 5 -4 6 -1 9 7 8 9 -2 13 13 14 57 1 33 -1 45 -3
26 -5 -39 -38 -88 -48 -71 -3 5 -3 15 0 20 3 6 1 10 -4 10 -10 0 -15 -17 -14
-47 1 -7 -3 -10 -9 -7 -5 3 -6 14 -3 25 4 11 2 19 -6 19 -9 0 -8 4 1 15 9 10
9 15 1 15 -12 0 -14 -9 -13 -52 1 -29 -12 -38 -21 -15 -3 6 -6 -1 -6 -16 -1
-25 -3 -27 -16 -13 -17 17 -20 30 -5 21 6 -3 10 -1 10 4 0 14 -17 14 -25 2 -3
-6 -13 -9 -23 -8 -13 1 -19 11 -21 36 -4 73 -11 41 -12 -60 -1 -57 -2 -113 -3
-124 -1 -11 -3 -76 -4 -144 -2 -127 -11 -146 -31 -66 -9 36 -10 36 -7 7 1 -18
-1 -35 -5 -37 -4 -3 -5 -24 -3 -48 3 -30 2 -38 -6 -27 -14 21 -14 2111 0 2162
13 47 55 97 95 114 44 19 110 17 154 -6z m-1376 -294 c42 -17 83 -66 97 -114
6 -24 9 -226 8 -577 -3 -574 -12 -1243 -16 -1161 -2 57 -12 57 -14 0 -1 -45
-15 -77 -29 -69 -5 4 -13 -4 -18 -17 -7 -17 -10 -19 -10 -5 -1 9 8 26 20 38
16 16 20 29 15 53 -4 22 -3 27 4 16 5 -8 10 -11 10 -6 0 5 -6 17 -14 25 -11
12 -15 56 -18 183 -2 92 -6 170 -10 174 -4 4 -13 2 -20 -3 -7 -6 -23 -9 -35
-7 -12 2 -23 -3 -27 -12 -4 -11 -13 -14 -30 -10 -15 4 -26 1 -28 -6 -3 -8 -9
-5 -16 8 -9 17 -8 21 6 21 9 0 22 -4 29 -9 8 -7 11 -4 10 10 -1 13 -6 18 -17
14 -13 -5 -13 -3 -1 11 12 15 12 17 -3 11 -10 -4 -25 1 -36 11 -18 16 -19 16
-14 -19 3 -27 1 -36 -11 -36 -11 0 -15 19 -18 93 -1 50 -4 7 -5 -98 -2 -104
-5 -219 -6 -255 -2 -36 -4 -77 -5 -92 -1 -23 -6 -28 -26 -28 l-25 0 0 868 0
868 23 44 c39 79 143 113 230 76z m2074 -302 c15 -11 38 -40 50 -64 l23 -43
-1 -531 c-1 -292 -5 -544 -9 -561 -7 -29 -8 -29 -9 9 -2 58 -10 39 -13 -29 -2
-37 -8 -59 -16 -61 -7 -1 -8 0 -2 3 5 2 7 10 3 16 -4 6 -8 36 -9 67 -2 59 -15
214 -18 217 -1 1 -8 -7 -15 -19 -7 -11 -8 -17 -2 -13 6 3 11 1 11 -4 0 -14
-13 -14 -27 0 -9 9 -14 5 -19 -17 l-8 -29 -7 25 c-7 24 -7 24 -8 -5 -1 -30 -2
-29 -21 13 -10 23 -22 42 -25 42 -3 0 -1 -10 6 -21 8 -15 8 -19 0 -15 -19 12
-50 15 -56 5 -4 -5 3 -9 14 -9 29 0 26 -23 -4 -37 -20 -9 -25 -8 -25 3 0 8 10
15 23 15 l22 2 -22 4 c-17 3 -23 11 -23 31 0 21 -2 24 -10 12 -5 -8 -10 -64
-10 -125 -1 -103 -2 -109 -17 -90 -13 16 -15 17 -10 3 4 -11 1 -18 -6 -19 -7
0 -2 -4 11 -9 12 -5 22 -15 21 -22 0 -9 -2 -10 -5 -1 -10 22 -34 1 -35 -31 -1
-29 -2 -29 -9 9 -5 22 -9 296 -9 609 -1 550 -1 570 19 611 29 61 79 87 157 82
44 -2 71 -9 90 -23z m-2761 -363 c23 -10 52 -34 65 -52 24 -34 24 -37 27 -314
3 -313 -2 -345 -61 -387 -17 -12 -27 -16 -23 -10 14 22 17 62 5 62 -8 0 -7 6
2 17 13 15 12 15 -10 4 -19 -11 -22 -11 -15 0 12 21 12 48 -1 53 -8 3 -11 -5
-9 -20 1 -13 -2 -22 -7 -18 -5 3 -7 11 -3 17 3 7 -1 4 -9 -6 -10 -12 -16 -14
-19 -6 -3 9 -9 9 -26 0 -18 -9 -21 -9 -16 2 4 10 -2 14 -20 12 -32 -4 -48 -14
-41 -26 3 -5 -1 -6 -9 -3 -13 5 -16 -1 -16 -29 0 -20 4 -38 9 -42 6 -3 8 4 6
15 -2 11 0 18 5 15 5 -3 9 -17 8 -30 -2 -22 -4 -23 -22 -11 -11 7 -29 25 -41
40 -19 26 -20 44 -23 325 -3 295 -3 297 20 331 28 42 99 80 148 80 19 0 53 -9
76 -19z m3404 -154 c68 -45 75 -72 73 -255 -2 -140 -5 -168 -21 -195 -12 -21
-25 -31 -38 -29 -14 2 -16 1 -5 -6 10 -8 8 -13 -10 -26 -26 -18 -145 -24 -134
-6 3 5 0 7 -8 4 -24 -9 -85 53 -98 99 -6 24 -9 101 -7 188 3 163 9 180 78 227
46 31 124 31 170 -1z"/>
</g>
</svg>
